# xmcd CD database file
#
# Track frame offsets:
#	182
#	15957
#	31740
#
# Disc length: 693 seconds
#
# Revision: 0
# Processed by: cddbd v1.4PL0 Copyright (c) Steve Scherf et al.
# Submitted via: CDex 1.40Release
#
DISCID=1002b303
DTITLE=Mindy McCready - Oh Romeo
DYEAR=1900
DGENRE=Country
TTITLE0=Oh Romeo
TTITLE1=Oh Romeo (Acoustic)
TTITLE2=Cross Against The Moon
EXTD=ID3G: 2
EXTT0=
EXTT1=
EXTT2=
PLAYORDER=
